<?xml version="1.0" encoding="UTF-8" standalone="no"?>
<svg viewBox="0 0 171 35" version="1.1" xmlns="http://www.w3.org/2000/svg" xmlns:xlink="http://www.w3.org/1999/xlink" style="background: transparent;">
    <title>Element43</title>
    <desc>Logo</desc>
    <defs></defs>
    <g id="Page-1" stroke="none" stroke-width="1" fill="none" fill-rule="evenodd">
        <g id="Group-2" transform="translate(2.000000, 0.000000)" fill="#FFFFFF">
            <path d="M0.304,35 L14.896,35 L14.896,30.104 L5.2,30.104 L5.2,20.072 L13.648,20.072 L13.648,15.464 L5.2,15.464 L5.2,5.432 L14.896,5.432 L14.896,0.824 L0.304,0.824 L0.304,35 Z M18.064,35 L32.656,35 L32.656,30.104 L22.96,30.104 L22.96,0.824 L18.064,0.824 L18.064,35 Z M35.824,35 L50.416,35 L50.416,30.104 L40.72,30.104 L40.72,20.072 L49.168,20.072 L49.168,15.464 L40.72,15.464 L40.72,5.432 L50.416,5.432 L50.416,0.824 L35.824,0.824 L35.824,35 Z M53.584,35 L58.48,35 L58.48,14.216 L58.576,14.216 L63.376,28.904 L65.824,28.904 L70.672,14.216 L70.768,14.216 L70.768,35 L75.664,35 L75.664,0.824 L70.912,0.824 L64.672,18.92 L64.576,18.92 L58.288,0.824 L53.584,0.824 L53.584,35 Z M80.272,35 L94.864,35 L94.864,30.104 L85.168,30.104 L85.168,20.072 L93.616,20.072 L93.616,15.464 L85.168,15.464 L85.168,5.432 L94.864,5.432 L94.864,0.824 L80.272,0.824 L80.272,35 Z M97.84,35 L102.736,35 L102.736,14.456 L102.832,14.456 L110.32,35 L114.928,35 L114.928,0.824 L110.032,0.824 L110.032,21.416 L109.936,21.416 L102.544,0.824 L97.84,0.824 L97.84,35 Z M122.56,35 L127.456,35 L127.456,5.432 L133.12,5.432 L133.12,0.824 L116.896,0.824 L116.896,5.432 L122.56,5.432 L122.56,35 Z" id="ELEMENT"></path>
        </g>
        <g id="Group" transform="translate(135.000000, 0.000000)" fill="#F7A53D">
            <polygon id="Path" points="10.152 35 15.048 35 15.048 29.912 17.4 29.912 17.4 25.304 15.048 25.304 15.048 15.56 10.152 15.56 10.152 25.304 5.304 25.304 12.648 0.824 7.464 0.824 0.408 25.304 0.408 29.912 10.152 29.912"></polygon>
            <path d="M25.272,19.544 C28.44,19.544 29.16,20.12 29.16,22.76 L29.16,27.656 C29.16,29.336 28.248,30.392 26.76,30.392 C25.272,30.392 24.36,29.288 24.36,27.752 L24.36,25.208 L19.464,25.208 L19.464,27.992 C19.464,33.368 23.592,35.288 26.712,35.288 C29.688,35.288 31.56,33.944 32.76,32.168 C33.768,30.68 34.056,29.672 34.056,25.16 C34.056,20.312 34.056,19.208 31.032,17.336 C33.816,15.656 34.056,14.888 34.056,10.184 C34.056,5.816 33.48,4.472 32.184,2.936 C31.32,1.88 29.496,0.536 26.856,0.536 C22.824,0.536 19.464,3.752 19.464,7.784 L19.464,10.616 L24.36,10.616 L24.36,7.832 C24.36,6.824 25.032,5.432 26.76,5.432 C28.248,5.432 29.16,6.44 29.16,7.832 L29.16,12.248 C29.16,14.792 28.2,15.224 25.272,15.224 L25.272,19.544 Z" id="Path"></path>
        </g>
    </g>
</svg>
